<?xml version="1.0" encoding="UTF-8" standalone="no" ?>
<!DOCTYPE svg PUBLIC "-//W3C//DTD SVG 1.1//EN" "http://www.w3.org/Graphics/SVG/1.1/DTD/svg11.dtd">
<svg xmlns="http://www.w3.org/2000/svg" xmlns:xlink="http://www.w3.org/1999/xlink" version="1.1" width="1080" height="1080" viewBox="0 0 1080 1080" xml:space="preserve">
<desc>Created with Fabric.js 5.2.4</desc>
<defs>
</defs>
<g transform="matrix(1 0 0 1 540 540)" id="d54e670c-70a6-4c36-b5e8-4facd22b4de8"  >
<rect style="stroke: none; stroke-width: 1; stroke-dasharray: none; stroke-linecap: butt; stroke-dashoffset: 0; stroke-linejoin: miter; stroke-miterlimit: 4; fill: rgb(255,255,255); fill-rule: nonzero; opacity: 1; visibility: hidden;" vector-effect="non-scaling-stroke"  x="-540" y="-540" rx="0" ry="0" width="1080" height="1080" />
</g>
<g transform="matrix(1 0 0 1 540 540)" id="a589519e-a863-4651-91d5-bb369a4bdd7e"  >
</g>
<g transform="matrix(1 0 0 1 540 540)"  >
<g style="" vector-effect="non-scaling-stroke"   >
		<g transform="matrix(1 0 0 1 -272.2 20.6)"  >
<path style="stroke: none; stroke-width: 1; stroke-dasharray: none; stroke-linecap: butt; stroke-dashoffset: 0; stroke-linejoin: miter; stroke-miterlimit: 4; fill: rgb(255,255,255); fill-rule: nonzero; opacity: 1;" vector-effect="non-scaling-stroke"  transform=" translate(-267.8, -155.9)" d="M 306.2 155.7 C 306.16711643464976 157.65833654825946 304.55848585273844 159.22228294733986 302.59999999999997 159.2 L 236.3 159.2 C 238 175.6 250.3 190.6 267.7 190.6 C 279.59999999999997 190.6 288.4 186.1 295 176.6 C 295.6239848655657 175.58650756894502 296.71084674087393 174.9493816420402 297.9 174.9 C 298.7826743057107 174.87488487267854 299.63671379553284 175.21449102543878 300.261111385047 175.83888861495296 C 300.8855089745612 176.46328620446715 301.2251151273215 177.3173256942893 301.2 178.20000000000002 C 301.20229065220826 178.80324545779936 301.02852375799 179.39405289814135 300.7 179.9 C 294 191.5 280.7 197.20000000000002 267.7 197.20000000000002 C 245.39999999999998 197.20000000000002 229.39999999999998 177.20000000000002 229.39999999999998 155.90000000000003 C 229.39999999999998 134.60000000000005 245.29999999999998 114.60000000000004 267.7 114.60000000000004 C 290.1 114.60000000000004 306.09999999999997 134.40000000000003 306.2 155.70000000000005 Z M 299.09999999999997 152.6 C 297.7 136.2 285.09999999999997 121.19999999999999 267.7 121.19999999999999 C 250.3 121.19999999999999 238 136.2 236.29999999999998 152.6 Z" stroke-linecap="round" />
</g>
		<g transform="matrix(1 0 0 1 -173.95 6.29)"  >
<path style="stroke: none; stroke-width: 1; stroke-dasharray: none; stroke-linecap: butt; stroke-dashoffset: 0; stroke-linejoin: miter; stroke-miterlimit: 4; fill: rgb(255,255,255); fill-rule: nonzero; opacity: 1;" vector-effect="non-scaling-stroke"  transform=" translate(-366.05, -141.59)" d="M 386.8 116.2 C 388.6004659188829 116.25222002280373 390.0477799771963 117.6995340811171 390.1 119.5 C 390.1251151273215 120.38267430571072 389.78550897456125 121.23671379553285 389.16111138504704 121.86111138504704 C 388.5367137955329 122.48550897456123 387.68267430571075 122.82511512732148 386.8 122.8 L 369 122.8 L 369 192.7 C 368.9837142570342 194.5157511169962 367.5157511169962 195.98371425703422 365.7 196 C 363.89953408111705 195.9477799771963 362.4522200228037 194.5004659188829 362.4 192.7 L 362.4 122.8 L 345.3 122.8 C 344.4173256942893 122.82511512732148 343.56328620446715 122.48550897456123 342.938888614953 121.86111138504704 C 342.31449102543877 121.23671379553285 341.9748848726785 120.38267430571072 342 119.5 C 342.0162857429658 117.68424888300379 343.4842488830038 116.21628574296578 345.3 116.2 L 362.40000000000003 116.2 L 362.40000000000003 90.7 C 362.40350918398605 88.95443644341657 363.67550918398604 87.47043644341657 365.40000000000003 87.2 C 366.3442343799718 87.07459203512457 367.2962174602602 87.36713366478857 368.0070832422769 88.00114909199262 C 368.71794902429355 88.63516451919668 369.11703035957436 89.54762628720252 369.1 90.5 L 369.1 116.2 Z" stroke-linecap="round" />
</g>
		<g transform="matrix(1 0 0 1 -77.25 -12.44)"  >
<path style="stroke: none; stroke-width: 1; stroke-dasharray: none; stroke-linecap: butt; stroke-dashoffset: 0; stroke-linejoin: miter; stroke-miterlimit: 4; fill: rgb(255,255,255); fill-rule: nonzero; opacity: 1;" vector-effect="non-scaling-stroke"  transform=" translate(-462.75, -122.86)" d="M 495.3 150 L 495.3 192.3 C 495.2477799771963 194.10046591888292 493.80046591888294 195.5477799771963 492 195.60000000000002 C 491.11732569428926 195.6251151273215 490.26328620446714 195.28550897456125 489.638888614953 194.66111138504706 C 489.01449102543876 194.03671379553288 488.6748848726785 193.18267430571072 488.7 192.3 L 488.7 150 C 488.7 135.7 480.59999999999997 121.5 464.7 121.5 C 444.3 121.5 435.5 139.3 436.7 157.6 C 436.7 158.1 436.9 160.2 436.9 160.5 L 436.9 192.2 C 436.89649081601397 193.9455635565834 435.624490816014 195.42956355658342 433.9 195.7 C 432.9557656200282 195.82540796487544 432.0037825397398 195.53286633521142 431.2929167577231 194.89885090800738 C 430.58205097570647 194.2648354808033 430.18296964042565 193.35237371279746 430.2 192.39999999999998 L 430.2 53.3 C 430.2162857429658 51.48424888300379 431.68424888300376 50.01628574296578 433.5 50 C 435.3004659188829 50.052220022803716 436.7477799771963 51.49953408111709 436.8 53.3 L 436.8 131.89999999999998 C 442.5 121.69999999999997 452.7 114.79999999999998 464.6 114.79999999999998 C 484.20000000000005 114.79999999999998 495.3 131.89999999999998 495.3 150 Z" stroke-linecap="round" />
</g>
		<g transform="matrix(1 0 0 1 36 20.6)"  >
<path style="stroke: none; stroke-width: 1; stroke-dasharray: none; stroke-linecap: butt; stroke-dashoffset: 0; stroke-linejoin: miter; stroke-miterlimit: 4; fill: rgb(255,255,255); fill-rule: nonzero; opacity: 1;" vector-effect="non-scaling-stroke"  transform=" translate(-576, -155.9)" d="M 614.4 155.7 C 614.3671164346497 157.65833654825946 612.7584858527384 159.22228294733986 610.8 159.2 L 544.5 159.2 C 546.2 175.6 558.5 190.6 575.9 190.6 C 587.8 190.6 596.6 186.1 603.1999999999999 176.6 C 603.8239848655656 175.58650756894502 604.9108467408738 174.9493816420402 606.0999999999999 174.9 C 606.9826743057106 174.87488487267854 607.8367137955328 175.2144910254388 608.4611113850469 175.838888614953 C 609.0855089745611 176.46328620446718 609.4251151273213 177.3173256942893 609.3999999999999 178.20000000000002 C 609.4022906522081 178.80324545779936 609.2285237579899 179.39405289814135 608.8999999999999 179.9 C 602.1999999999998 191.5 588.8999999999999 197.20000000000002 575.8999999999999 197.20000000000002 C 553.5999999999999 197.20000000000002 537.5999999999999 177.20000000000002 537.5999999999999 155.90000000000003 C 537.5999999999999 134.60000000000005 553.4999999999999 114.60000000000004 575.8999999999999 114.60000000000004 C 598.0999999999999 114.60000000000004 614.2999999999998 134.40000000000003 614.3999999999999 155.70000000000005 Z M 607.1999999999999 152.6 C 605.8 136.2 593.1999999999999 121.19999999999999 575.8 121.19999999999999 C 558.4 121.19999999999999 546.0999999999999 136.2 544.4 152.6 Z" stroke-linecap="round" />
</g>
		<g transform="matrix(1 0 0 1 136.85 20.51)"  >
<path style="stroke: none; stroke-width: 1; stroke-dasharray: none; stroke-linecap: butt; stroke-dashoffset: 0; stroke-linejoin: miter; stroke-miterlimit: 4; fill: rgb(255,255,255); fill-rule: nonzero; opacity: 1;" vector-effect="non-scaling-stroke"  transform=" translate(-676.85, -155.81)" d="M 695.9 119.3 C 696.0320409908473 121.14816224946618 694.6472892657255 122.7562610270271 692.8 122.89999999999999 C 673.3 125.8 664.5 141.7 664.5 160.2 L 664.5 191.89999999999998 C 664.496490816014 193.6455635565834 663.224490816014 195.1295635565834 661.5 195.39999999999998 C 660.5557656200282 195.52540796487543 659.6037825397398 195.23286633521144 658.8929167577231 194.59885090800736 C 658.1820509757065 193.96483548080332 657.7829696404256 193.05237371279748 657.8 192.09999999999997 L 657.8 119.8 C 657.803509183986 118.05443644341656 659.0755091839859 116.57043644341657 660.8 116.3 C 661.7442343799718 116.17459203512453 662.6962174602602 116.46713366478853 663.4070832422768 117.1011490919926 C 664.1179490242935 117.73516451919664 664.5170303595744 118.6476262872025 664.5 119.6 L 664.5 134.29999999999998 C 670 124.99999999999999 680.9 116.19999999999999 692.3 116.19999999999999 C 694 116.2 695.9 117.4 695.9 119.3 Z" stroke-linecap="round" />
</g>
		<g transform="matrix(1 0 0 1 226.5 20.6)"  >
<path style="stroke: none; stroke-width: 1; stroke-dasharray: none; stroke-linecap: butt; stroke-dashoffset: 0; stroke-linejoin: miter; stroke-miterlimit: 4; fill: rgb(255,255,255); fill-rule: nonzero; opacity: 1;" vector-effect="non-scaling-stroke"  transform=" translate(-766.5, -155.9)" d="M 804.9 155.7 C 804.8671164346497 157.65833654825946 803.2584858527384 159.22228294733986 801.3 159.2 L 735 159.2 C 736.7 175.6 749 190.6 766.4 190.6 C 778.3 190.6 787.1 186.1 793.6999999999999 176.6 C 794.3239848655656 175.58650756894502 795.4108467408738 174.9493816420402 796.5999999999999 174.9 C 797.4826743057106 174.87488487267854 798.3367137955328 175.2144910254388 798.9611113850469 175.838888614953 C 799.5855089745611 176.46328620446718 799.9251151273213 177.3173256942893 799.8999999999999 178.20000000000002 C 799.9022906522081 178.80324545779936 799.7285237579899 179.39405289814135 799.3999999999999 179.9 C 792.6999999999998 191.5 779.3999999999999 197.20000000000002 766.3999999999999 197.20000000000002 C 744.0999999999999 197.20000000000002 728.0999999999999 177.20000000000002 728.0999999999999 155.90000000000003 C 728.0999999999999 134.60000000000005 743.9999999999999 114.60000000000004 766.3999999999999 114.60000000000004 C 788.7999999999998 114.60000000000004 804.7999999999998 134.40000000000003 804.8999999999999 155.70000000000005 Z M 797.8 152.6 C 796.4 136.2 783.8 121.19999999999999 766.4 121.19999999999999 C 749 121.19999999999999 736.6999999999999 136.2 735 152.6 Z" stroke-linecap="round" />
</g>
		<g transform="matrix(1 0 0 1 339.7 21.85)"  >
<path style="stroke: none; stroke-width: 1; stroke-dasharray: none; stroke-linecap: butt; stroke-dashoffset: 0; stroke-linejoin: miter; stroke-miterlimit: 4; fill: rgb(255,255,255); fill-rule: nonzero; opacity: 1;" vector-effect="non-scaling-stroke"  transform=" translate(-879.7, -157.15)" d="M 912.1 120.1 L 912.1 192.7 C 912.0477799771963 194.50046591888287 910.600465918883 195.94777997719626 908.8000000000001 196 C 907.9173256942894 196.02511512732147 907.0632862044672 195.6855089745612 906.438888614953 195.061111385047 C 905.8144910254389 194.43671379553282 905.4748848726787 193.5826743057107 905.5000000000001 192.7 L 905.5000000000001 178.9 C 900.0000000000001 189.8 890.3000000000001 197.70000000000002 877.9000000000001 197.70000000000002 C 858.2 197.70000000000002 847.3000000000001 180.60000000000002 847.3000000000001 162.5 L 847.3000000000001 120 C 847.3162857429659 118.1842488830038 848.7842488830038 116.71628574296581 850.6 116.7 C 852.4004659188829 116.75222002280375 853.8477799771963 118.19953408111712 853.9 120 L 853.9 162.5 C 853.9 176.8 862 191 877.9 191 C 900.1999999999999 191 905.5 170.1 905.5 147 L 905.5 119.9 C 905.515007944782 118.8144392153671 906.0551543713174 117.8034622362195 906.9492073577904 117.1875590677603 C 907.8432603442634 116.5716558993011 908.9803472731501 116.42720545582472 910 116.80000000000001 C 911.2834754484719 117.39654239132628 912.103192376622 118.6846689927049 912.1 120.10000000000001 Z" stroke-linecap="round" />
</g>
		<g transform="matrix(1 0 0 1 478.35 19.91)"  >
<path style="stroke: none; stroke-width: 1; stroke-dasharray: none; stroke-linecap: butt; stroke-dashoffset: 0; stroke-linejoin: miter; stroke-miterlimit: 4; fill: rgb(255,255,255); fill-rule: nonzero; opacity: 1;" vector-effect="non-scaling-stroke"  transform=" translate(-1018.35, -155.21)" d="M 1080 149.7 L 1080 192.2 C 1079.9477799771962 194.00046591888287 1078.500465918883 195.44777997719626 1076.7 195.5 C 1075.8173256942894 195.52511512732147 1074.9632862044673 195.1855089745612 1074.338888614953 194.561111385047 C 1073.7144910254387 193.93671379553282 1073.3748848726786 193.0826743057107 1073.4 192.2 L 1073.4 149.7 C 1073.4 135.39999999999998 1065.3000000000002 121.39999999999999 1049.4 121.39999999999999 C 1029.4 121.39999999999999 1021.8000000000001 142.79999999999998 1021.8000000000001 159.39999999999998 L 1021.8000000000001 192.2 C 1021.7477799771964 194.00046591888287 1020.300465918883 195.44777997719626 1018.5000000000001 195.5 C 1017.6173256942894 195.52511512732147 1016.7632862044672 195.1855089745612 1016.1388886149531 194.561111385047 C 1015.5144910254389 193.93671379553282 1015.1748848726787 193.0826743057107 1015.2000000000002 192.2 L 1015.2000000000002 149.7 C 1015.2000000000002 135.39999999999998 1007.1000000000001 121.39999999999999 991.2000000000002 121.39999999999999 C 971.0000000000001 121.39999999999999 962.7000000000002 137.29999999999998 963.4000000000002 158.5 C 963.4000000000002 159 963.6000000000003 159.9 963.4000000000002 160.2 L 963.4000000000002 192.1 C 963.3964908160142 193.84556355658341 962.1244908160143 195.32956355658342 960.4000000000002 195.6 C 959.4557656200284 195.72540796487544 958.50378253974 195.43286633521146 957.7929167577233 194.79885090800738 C 957.0820509757067 194.16483548080333 956.6829696404258 193.2523737127975 956.7000000000002 192.29999999999998 L 956.7000000000002 119.8 C 956.7035091839862 118.05443644341656 957.9755091839861 116.57043644341657 959.7000000000002 116.3 C 960.644234379972 116.17459203512453 961.5962174602604 116.46713366478853 962.307083242277 117.1011490919926 C 963.0179490242937 117.73516451919664 963.4170303595746 118.6476262872025 963.4000000000002 119.6 L 963.4000000000002 131.7 C 969.1000000000003 121.49999999999999 979.3000000000002 114.79999999999998 991.2000000000002 114.79999999999998 C 1004.7000000000002 114.79999999999998 1015.2000000000002 123.39999999999998 1019.5000000000001 135.89999999999998 C 1025 123.49999999999997 1035.7 114.79999999999998 1049.4 114.79999999999998 C 1068.9 114.79999999999998 1080 131.7 1080 149.7 Z" stroke-linecap="round" />
</g>
		<g transform="matrix(1 0 0 1 -456.95 8.2)"  >
<path style="stroke: none; stroke-width: 1; stroke-dasharray: none; stroke-linecap: butt; stroke-dashoffset: 0; stroke-linejoin: miter; stroke-miterlimit: 4; fill: rgb(255,255,255); fill-rule: nonzero; opacity: 0.6000000238418579;" vector-effect="non-scaling-stroke"  transform=" translate(-83.05, -143.5)" d="M 83 100.1 L 0 137.8 L 83 186.9 L 166.1 137.8 Z" stroke-linecap="round" />
</g>
		<g transform="matrix(1 0 0 1 -498.5 -41.85)"  >
<path style="stroke: none; stroke-width: 1; stroke-dasharray: none; stroke-linecap: butt; stroke-dashoffset: 0; stroke-linejoin: miter; stroke-miterlimit: 4; fill: rgb(255,255,255); fill-rule: nonzero; opacity: 0.44999998807907104;" vector-effect="non-scaling-stroke"  transform=" translate(-41.5, -93.45)" d="M 0 137.8 L 83 186.9 L 83 0 Z" stroke-linecap="round" />
</g>
		<g transform="matrix(1 0 0 1 -415.45 -41.85)"  >
<path style="stroke: none; stroke-width: 1; stroke-dasharray: none; stroke-linecap: butt; stroke-dashoffset: 0; stroke-linejoin: miter; stroke-miterlimit: 4; fill: rgb(255,255,255); fill-rule: nonzero; opacity: 0.800000011920929;" vector-effect="non-scaling-stroke"  transform=" translate(-124.55, -93.45)" d="M 83 0 L 83 186.9 L 166.1 137.8 Z" stroke-linecap="round" />
</g>
		<g transform="matrix(1 0 0 1 -498.5 76.8)"  >
<path style="stroke: none; stroke-width: 1; stroke-dasharray: none; stroke-linecap: butt; stroke-dashoffset: 0; stroke-linejoin: miter; stroke-miterlimit: 4; fill: rgb(255,255,255); fill-rule: nonzero; opacity: 0.44999998807907104;" vector-effect="non-scaling-stroke"  transform=" translate(-41.5, -212.1)" d="M 0 153.6 L 83 270.6 L 83 202.60000000000002 Z" stroke-linecap="round" />
</g>
		<g transform="matrix(1 0 0 1 -415.45 76.8)"  >
<path style="stroke: none; stroke-width: 1; stroke-dasharray: none; stroke-linecap: butt; stroke-dashoffset: 0; stroke-linejoin: miter; stroke-miterlimit: 4; fill: rgb(255,255,255); fill-rule: nonzero; opacity: 0.800000011920929;" vector-effect="non-scaling-stroke"  transform=" translate(-124.55, -212.1)" d="M 83 202.6 L 83 270.6 L 166.1 153.60000000000002 Z" stroke-linecap="round" />
</g>
</g>
</g>
</svg>